<svg viewBox="0 0 400 400" fill="none" xmlns="http://www.w3.org/2000/svg">
<path d="M125.054 259.763H161.601V261.043H168.866V257.205H110.844V258.484H125.054V259.763Z" className="fill-white" />
<path d="M125.054 246.236H161.601V243.678H108V244.957H125.054V246.236Z" className="fill-white" />
<path d="M161.599 192.771V194.05H198.142V195.33H234.686V196.609H265.826V190.213H119.953V191.492H125.052V192.771H161.599Z" className="fill-white" />
<path d="M125.055 179.883H161.602V181.162H198.145V182.441H228.629V177.324H112.473V178.603H125.055V179.883Z" className="fill-white" />
<path d="M125.051 151.551H161.653V148.992H108.273V150.271H125.051V151.551Z" className="fill-white" />
<path d="M125.054 138.023H161.601V139.302H168.867V135.467H109.932V136.744H125.054V138.023Z" className="fill-white" />
<path d="M125.056 124.497H161.603V125.776H198.146V127.055H234.689V128.334H271.236V129.613H280.028V121.94H114.814V123.218H125.056V124.497Z" className="fill-white" />
<path d="M125.055 111.61H161.603V112.889H198.146V114.168H234.689V115.448H270.733V109.052H124.125V110.331H125.055V111.61Z" className="fill-white" />
<path d="M198.144 206.935V208.214H234.687V209.493H271.234V210.773H280.674V203.098H135.35V204.377V205.656H161.601V206.935H198.144Z" className="fill-white" />
<path d="M168.866 168.278V164.44H109.086V165.72H125.053V166.999H161.6V168.278H168.866Z" className="fill-white" />
<path d="M161.602 99.3658H198.145V100.645H234.688V101.924H254.363V95.5283H140.979V96.8075V98.0866H161.602V99.3658Z" className="fill-white" />
<path d="M234.688 221.743V223.022H271.236V224.301H287.906V216.626H174.674V220.463H198.145V221.743H234.688Z" className="fill-white" />
<path d="M125.299 286.816H161.599V288.095H198.142V289.374H234.685V290.654H271.232V291.933H275.26V284.258H125.299V286.816Z" className="fill-white" />
<path d="M116.191 272.009H125.055V273.288H161.602V274.567H198.146V275.846H234.689V277.125H271.236V278.404H284.946V270.729H116.191V272.009Z" className="fill-white" />
<path d="M227.211 262.322H234.69V263.601H271.237V264.88H290.046V257.205H227.211V262.322Z" className="fill-white" />
<path d="M234.688 155.388H271.235V156.667H288.152V148.992H234.688V155.388Z" className="fill-white" />
<path d="M227.211 140.581H234.69V141.861H271.237V143.14H285.421V135.467H227.211V140.581Z" className="fill-white" />
<path d="M234.688 243.678V250.074H271.235V251.353H291.848V243.678H234.688Z" className="fill-white" />
<path d="M291.147 237.824V230.149H227.211V235.266H234.69V236.545H271.237V237.824H291.147Z" className="fill-white" />
<path d="M141.416 300.981H161.6V302.26H198.144V303.538H234.687V304.817H257.765V298.423H141.416V300.981Z" className="fill-white" />
<path d="M172.047 315.793H198.147V317.068H227.135V311.947H172.047V315.793Z" className="fill-white" />
<path d="M198.147 87.1205H227.135V82H172.047V85.8453H198.147V87.1205Z" className="fill-white" />
</svg>
