<svg width="320" height="95" viewBox="0 0 320 95" fill="none" xmlns="http://www.w3.org/2000/svg">
<path d="M36.5769 95C26.1264 95 17.545 92.5413 10.8329 87.6238C4.12074 82.6216 0.509783 75.4998 0 66.2584H26.6361C26.891 69.3954 27.8256 71.6845 29.4399 73.1258C31.0543 74.5672 33.1359 75.2878 35.6848 75.2878C37.9788 75.2878 39.848 74.7367 41.2924 73.6345C42.8217 72.4476 43.5864 70.8367 43.5864 68.8019C43.5864 66.1736 42.3544 64.1388 39.8905 62.6975C37.4265 61.2561 33.4332 59.6452 27.9106 57.8648C22.0481 55.9148 17.2901 54.0495 13.6367 52.2691C10.0682 50.4038 6.92455 47.7332 4.20571 44.257C1.57183 40.6961 0.254891 36.0754 0.254891 30.3949C0.254891 24.6296 1.69928 19.7122 4.58804 15.6426C7.47681 11.4882 11.4701 8.35118 16.5679 6.23159C21.6658 4.112 27.4433 3.05221 33.9005 3.05221C44.3511 3.05221 52.6775 5.51093 58.8799 10.4284C65.1672 15.261 68.5233 22.0861 68.9481 30.9036H41.8022C41.7172 28.1905 40.8676 26.1557 39.2533 24.7992C37.7239 23.4427 35.7273 22.7644 33.2633 22.7644C31.3941 22.7644 29.8648 23.3155 28.6753 24.4177C27.4858 25.5199 26.891 27.0884 26.891 29.1232C26.891 30.8188 27.5283 32.3025 28.8027 33.5743C30.1621 34.7613 31.8189 35.8211 33.7731 36.7537C35.7273 37.6015 38.616 38.7037 42.4394 40.0602C48.132 42.0103 52.805 43.9603 56.4584 45.9103C60.1968 47.7755 63.383 50.4462 66.0168 53.9224C68.7357 57.3137 70.0951 61.6377 70.0951 66.8942C70.0951 72.2356 68.7357 77.0259 66.0168 81.2651C63.383 85.5042 59.5171 88.8532 54.4193 91.3119C49.4064 93.7706 43.459 95 36.5769 95Z" fill="fill-primary-300"/>
<path d="M150.018 57.6104C150.018 59.5605 149.891 61.5105 149.636 63.4605H102.354C102.609 67.3606 103.671 70.2856 105.54 72.2356C107.494 74.1008 109.958 75.0335 112.932 75.0335C117.095 75.0335 120.069 73.1682 121.853 69.4377H148.489C147.385 74.3552 145.218 78.7639 141.989 82.664C138.846 86.4792 134.852 89.4891 130.009 91.6934C125.167 93.8978 119.814 95 113.951 95C106.899 95 100.612 93.5163 95.0894 90.5489C89.6517 87.5814 85.361 83.3423 82.2174 77.8313C79.1587 72.3204 77.6293 65.8344 77.6293 58.3735C77.6293 50.9125 79.1587 44.469 82.2174 39.0428C85.276 33.5319 89.5242 29.2927 94.9619 26.3253C100.485 23.3579 106.814 21.8742 113.951 21.8742C121.003 21.8742 127.248 23.3155 132.686 26.1981C138.124 29.0808 142.372 33.2352 145.43 38.6613C148.489 44.0027 150.018 50.3191 150.018 57.6104ZM124.529 51.3788C124.529 48.3266 123.51 45.9527 121.471 44.257C119.431 42.4766 116.883 41.5863 113.824 41.5863C110.765 41.5863 108.259 42.4342 106.305 44.1299C104.35 45.7407 103.076 48.1571 102.481 51.3788H124.529Z" fill="fill-primary-300"/>
<path d="M207.013 22.1285C215.255 22.1285 221.797 24.884 226.64 30.3949C231.483 35.8211 233.905 43.1972 233.905 52.5234V94.1098H208.925V55.83C208.925 51.7604 207.863 48.581 205.739 46.2918C203.615 43.9179 200.769 42.7309 197.2 42.7309C193.462 42.7309 190.531 43.9179 188.406 46.2918C186.282 48.581 185.22 51.7604 185.22 55.83V94.1098H160.241V22.7644H185.22V32.9384C187.429 29.7166 190.403 27.1307 194.141 25.1807C197.88 23.1459 202.171 22.1285 207.013 22.1285Z" fill="fill-primary-300"/>
<path d="M243.533 58.3735C243.533 50.9973 244.85 44.5538 247.483 39.0428C250.202 33.5319 253.898 29.2927 258.571 26.3253C263.244 23.3579 268.427 21.8742 274.12 21.8742C278.708 21.8742 282.786 22.8492 286.354 24.7992C290.008 26.6644 292.854 29.2503 294.893 32.5569V0H320V94.1098H294.893V84.1901C292.939 87.4967 290.178 90.1249 286.609 92.075C283.041 94.025 278.835 95 273.992 95C268.3 95 263.117 93.5163 258.444 90.5489C253.856 87.5814 250.202 83.3423 247.483 77.8313C244.85 72.2356 243.533 65.7497 243.533 58.3735ZM295.021 58.3735C295.021 53.7952 293.746 50.1919 291.197 47.5636C288.733 44.9353 285.675 43.6212 282.021 43.6212C278.283 43.6212 275.182 44.9353 272.718 47.5636C270.254 50.1071 269.022 53.7104 269.022 58.3735C269.022 62.9518 270.254 66.5975 272.718 69.3106C275.182 71.9389 278.283 73.253 282.021 73.253C285.675 73.253 288.733 71.9389 291.197 69.3106C293.746 66.6823 295.021 63.0366 295.021 58.3735Z" fill="fill-primary-300"/>
</svg>
