<svg width="16" height="16" viewBox="0 0 16 16" fill="none" xmlns="http://www.w3.org/2000/svg">
<rect width="16" height="16" fill="#40FB50"/>
<path d="M3.5 13L6.48194 3H7.8721L4.89015 13H3.5Z" fill="#122023"/>
<path d="M10.0504 11.9121C9.51944 11.9121 9.05793 11.8309 8.66586 11.6686C8.27379 11.5063 7.96462 11.28 7.73946 10.9896C7.51319 10.6992 7.381 10.365 7.3418 9.98701H8.7678C8.807 10.1461 8.8787 10.2913 8.98175 10.4226C9.08481 10.555 9.22483 10.6586 9.40406 10.7344C9.58217 10.8102 9.79389 10.8476 10.0392 10.8476C10.2845 10.8476 10.4705 10.8155 10.6217 10.7515C10.7718 10.6874 10.8827 10.602 10.9544 10.4963C11.0261 10.3906 11.0608 10.2774 11.0608 10.1568C11.0608 9.97526 11.0093 9.83646 10.9062 9.73824C10.8032 9.64001 10.6542 9.56313 10.4604 9.50655C10.2666 9.44996 10.0347 9.39551 9.76477 9.34212C9.47912 9.28981 9.20467 9.22361 8.93919 9.14353C8.6737 9.06452 8.43622 8.96416 8.22675 8.84351C8.01727 8.72286 7.85036 8.56805 7.72826 8.37907C7.60504 8.19008 7.54455 7.96053 7.54455 7.68827C7.54455 7.35622 7.63753 7.05833 7.82348 6.79354C8.00943 6.52982 8.2794 6.31949 8.63113 6.16467C8.98399 6.00986 9.40519 5.93298 9.89695 5.93298C10.5937 5.93298 11.1504 6.08566 11.566 6.39102C11.9816 6.69638 12.2258 7.12559 12.2964 7.67652H10.9421C10.9029 7.46512 10.792 7.3007 10.6094 7.18432C10.4268 7.06794 10.186 7.00922 9.88463 7.00922C9.5833 7.00922 9.34021 7.06367 9.17779 7.17364C9.01536 7.28361 8.93471 7.42882 8.93471 7.60926C8.93471 7.72991 8.98399 7.83561 9.08369 7.92636C9.18227 8.01712 9.32677 8.09506 9.5172 8.15805C9.70764 8.22211 9.94064 8.28404 10.2184 8.3449C10.662 8.42818 11.0541 8.52641 11.3946 8.63958C11.7352 8.75276 12.004 8.91932 12.2023 9.13819C12.4006 9.35707 12.4991 9.6667 12.4991 10.0671C12.507 10.429 12.4095 10.7504 12.2079 11.0301C12.0063 11.3099 11.7229 11.5266 11.3588 11.6814C10.9947 11.8362 10.559 11.9131 10.0515 11.9131L10.0504 11.9121Z" fill="#122023"/>
</svg>
